<mxfile host="app.diagrams.net" agent="Mozilla/5.0 (Windows NT 10.0; Win64; x64) AppleWebKit/537.36 (KHTML, like Gecko) Chrome/130.0.0.0 Safari/537.36" version="24.8.2">
  <diagram name="Page-1" id="AlxqP6ydvPt9aFqaADB3">
    <mxGraphModel>
      <root>
        <mxCell id="0" />
        <mxCell id="1" parent="0" />
        <mxCell id="2" value="Robots" style="whiteSpace=wrap;strokeWidth=2;verticalAlign=top;" vertex="1" parent="1">
          <mxGeometry x="8" y="8" width="879" height="767" as="geometry" />
        </mxCell>
        <mxCell id="3" value="Turtlebot Control" style="rounded=1;arcSize=40;strokeWidth=2" vertex="1" parent="2">
          <mxGeometry x="63" y="528" width="154" height="48" as="geometry" />
        </mxCell>
        <mxCell id="4" value="Turtlebot" style="whiteSpace=wrap;strokeWidth=2;" vertex="1" parent="2">
          <mxGeometry x="28" y="491" width="224" height="247" as="geometry" />
        </mxCell>
        <mxCell id="5" value="Arm 2" style="rounded=1;arcSize=40;strokeWidth=2" vertex="1" parent="2">
          <mxGeometry x="420" y="528" width="73" height="48" as="geometry" />
        </mxCell>
        <mxCell id="6" value="End Effector 1" style="rounded=1;arcSize=40;strokeWidth=2" vertex="1" parent="2">
          <mxGeometry x="307" y="652" width="132" height="48" as="geometry" />
        </mxCell>
        <mxCell id="7" value="End Effector 2" style="rounded=1;arcSize=40;strokeWidth=2" vertex="1" parent="2">
          <mxGeometry x="490" y="652" width="132" height="48" as="geometry" />
        </mxCell>
        <mxCell id="8" value="Arm" style="rounded=1;arcSize=40;strokeWidth=2" vertex="1" parent="2">
          <mxGeometry x="742" y="528" width="60" height="48" as="geometry" />
        </mxCell>
        <mxCell id="9" value="End Effector" style="rounded=1;arcSize=40;strokeWidth=2" vertex="1" parent="2">
          <mxGeometry x="712" y="652" width="120" height="48" as="geometry" />
        </mxCell>
        <mxCell id="10" value="Husky Control" style="rounded=1;arcSize=40;strokeWidth=2" vertex="1" parent="2">
          <mxGeometry x="400" y="83" width="129" height="48" as="geometry" />
        </mxCell>
        <mxCell id="11" value="Hardware" style="rounded=1;arcSize=40;strokeWidth=2" vertex="1" parent="2">
          <mxGeometry x="124" y="206" width="99" height="48" as="geometry" />
        </mxCell>
        <mxCell id="12" value="Process Communication" style="rounded=1;arcSize=40;strokeWidth=2" vertex="1" parent="2">
          <mxGeometry x="365" y="330" width="199" height="48" as="geometry" />
        </mxCell>
        <mxCell id="13" value="Turtlebot" style="rounded=1;arcSize=40;strokeWidth=2" vertex="1" parent="2">
          <mxGeometry x="92" y="652" width="97" height="48" as="geometry" />
        </mxCell>
        <mxCell id="14" value="Husky" style="whiteSpace=wrap;strokeWidth=2;" vertex="1" parent="2">
          <mxGeometry x="81" y="45" width="723" height="370" as="geometry" />
        </mxCell>
        <mxCell id="15" value="UR10e" style="whiteSpace=wrap;strokeWidth=2;" vertex="1" parent="2">
          <mxGeometry x="677" y="491" width="190" height="247" as="geometry" />
        </mxCell>
        <mxCell id="16" value="ABB 6700" style="whiteSpace=wrap;strokeWidth=2;" vertex="1" parent="2">
          <mxGeometry x="272" y="491" width="385" height="247" as="geometry" />
        </mxCell>
        <mxCell id="17" value="" style="curved=1;startArrow=none;endArrow=block;exitX=0.05;exitY=1.01;entryX=0.5;entryY=-0.01;" edge="1" parent="2" source="5" target="6">
          <mxGeometry relative="1" as="geometry">
            <Array as="points">
              <mxPoint x="374" y="614" />
            </Array>
          </mxGeometry>
        </mxCell>
        <mxCell id="18" value="" style="curved=1;startArrow=none;endArrow=block;exitX=1;exitY=0.98;entryX=0.5;entryY=-0.01;" edge="1" parent="2" source="5" target="7">
          <mxGeometry relative="1" as="geometry">
            <Array as="points">
              <mxPoint x="556" y="614" />
            </Array>
          </mxGeometry>
        </mxCell>
        <mxCell id="19" value="" style="curved=1;startArrow=none;endArrow=block;exitX=0.51;exitY=1.01;entryX=0.5;entryY=-0.01;" edge="1" parent="2" source="8" target="9">
          <mxGeometry relative="1" as="geometry">
            <Array as="points" />
          </mxGeometry>
        </mxCell>
        <mxCell id="20" value="" style="curved=1;startArrow=none;endArrow=block;exitX=0;exitY=0.79;entryX=0.5;entryY=0.01;" edge="1" parent="2" source="10" target="11">
          <mxGeometry relative="1" as="geometry">
            <Array as="points">
              <mxPoint x="174" y="169" />
            </Array>
          </mxGeometry>
        </mxCell>
        <mxCell id="21" value="" style="curved=1;startArrow=none;endArrow=block;exitX=0.5;exitY=1.02;entryX=0;entryY=0.06;" edge="1" parent="2" source="11" target="12">
          <mxGeometry relative="1" as="geometry">
            <Array as="points">
              <mxPoint x="174" y="292" />
            </Array>
          </mxGeometry>
        </mxCell>
        <mxCell id="22" value="" style="curved=1;startArrow=none;endArrow=block;exitX=0.5;exitY=1.01;entryX=0.5;entryY=-0.01;" edge="1" parent="2" source="3" target="13">
          <mxGeometry relative="1" as="geometry">
            <Array as="points" />
          </mxGeometry>
        </mxCell>
        <mxCell id="23" value="" style="curved=1;startArrow=none;endArrow=block;exitX=0.48;exitY=1;entryX=0.5;entryY=0;" edge="1" parent="2" source="12" target="5">
          <mxGeometry relative="1" as="geometry">
            <Array as="points">
              <mxPoint x="456" y="416" />
            </Array>
          </mxGeometry>
        </mxCell>
        <mxCell id="24" value="" style="curved=1;startArrow=none;endArrow=block;exitX=1;exitY=0.92;entryX=0.51;entryY=0;" edge="1" parent="2" source="12" target="8">
          <mxGeometry relative="1" as="geometry">
            <Array as="points">
              <mxPoint x="772" y="416" />
            </Array>
          </mxGeometry>
        </mxCell>
        <mxCell id="25" value="" style="curved=1;startArrow=none;endArrow=block;exitX=1;exitY=0.06;entryX=1;entryY=0.79;" edge="1" parent="2" source="12" target="10">
          <mxGeometry relative="1" as="geometry">
            <Array as="points">
              <mxPoint x="753" y="292" />
              <mxPoint x="753" y="169" />
            </Array>
          </mxGeometry>
        </mxCell>
        <mxCell id="26" value="" style="curved=1;startArrow=none;endArrow=block;exitX=0;exitY=0.89;entryX=0.5;entryY=0;" edge="1" parent="2" source="12" target="3">
          <mxGeometry relative="1" as="geometry">
            <Array as="points">
              <mxPoint x="140" y="416" />
            </Array>
          </mxGeometry>
        </mxCell>
        <mxCell id="27" value="Master Control" style="whiteSpace=wrap;strokeWidth=2;verticalAlign=top;" vertex="1" parent="1">
          <mxGeometry x="937" y="206" width="333" height="370" as="geometry" />
        </mxCell>
        <mxCell id="28" value="Main Control" style="rounded=1;arcSize=40;strokeWidth=2" vertex="1" parent="27">
          <mxGeometry x="138" y="46" width="122" height="48" as="geometry" />
        </mxCell>
        <mxCell id="29" value="External Monitoring" style="rounded=1;arcSize=40;strokeWidth=2" vertex="1" parent="27">
          <mxGeometry x="54" y="169" width="170" height="48" as="geometry" />
        </mxCell>
        <mxCell id="30" value="Human-Machine Interface" style="rounded=1;arcSize=40;strokeWidth=2" vertex="1" parent="27">
          <mxGeometry x="92" y="292" width="214" height="48" as="geometry" />
        </mxCell>
        <mxCell id="31" value="" style="curved=1;startArrow=none;endArrow=block;exitX=0.31;exitY=1;entryX=0.5;entryY=0;" edge="1" parent="27" source="28" target="29">
          <mxGeometry relative="1" as="geometry">
            <Array as="points">
              <mxPoint x="139" y="131" />
            </Array>
          </mxGeometry>
        </mxCell>
        <mxCell id="32" value="" style="curved=1;startArrow=none;endArrow=block;exitX=0.5;exitY=1.01;entryX=0.39;entryY=0.01;" edge="1" parent="27" source="29" target="30">
          <mxGeometry relative="1" as="geometry">
            <Array as="points">
              <mxPoint x="139" y="255" />
            </Array>
          </mxGeometry>
        </mxCell>
        <mxCell id="33" value="" style="curved=1;startArrow=none;endArrow=block;exitX=0.61;exitY=0.01;entryX=0.7;entryY=1;" edge="1" parent="27" source="30" target="28">
          <mxGeometry relative="1" as="geometry">
            <Array as="points">
              <mxPoint x="260" y="255" />
              <mxPoint x="260" y="131" />
            </Array>
          </mxGeometry>
        </mxCell>
      </root>
    </mxGraphModel>
  </diagram>
</mxfile>
